<svg width="135" height="94" viewBox="0 0 135 94" fill="none" xmlns="http://www.w3.org/2000/svg">
<rect x="1" width="128" height="56" rx="5" fill="black"/>
<g filter="url(#filter0_d_1_88)">
<path d="M27.7742 39C27.2515 39 26.8222 38.8413 26.4862 38.524C26.1688 38.188 26.0102 37.7773 26.0102 37.292V21.108C26.0102 20.6227 26.1688 20.2213 26.4862 19.904C26.8222 19.568 27.2328 19.4 27.7182 19.4H36.8182C37.3035 19.4 37.7048 19.5587 38.0222 19.876C38.3582 20.1747 38.5262 20.5667 38.5262 21.052C38.5262 21.4627 38.3582 21.8267 38.0222 22.144C37.7048 22.4613 37.3035 22.62 36.8182 22.62H29.2582L29.5102 22.284V27.912L29.3142 27.548H35.5582C36.0435 27.548 36.4448 27.7067 36.7622 28.024C37.0982 28.3227 37.2662 28.7147 37.2662 29.2C37.2662 29.6107 37.0982 29.9747 36.7622 30.292C36.4448 30.6093 36.0435 30.768 35.5582 30.768H29.2582L29.5102 30.516V37.292C29.5102 37.7773 29.3328 38.188 28.9782 38.524C28.6422 38.8413 28.2408 39 27.7742 39ZM47.8961 39.28C46.5894 39.28 45.4134 39.1213 44.3681 38.804C43.3228 38.468 42.3241 37.8893 41.3721 37.068C41.1294 36.8627 40.9428 36.6293 40.8121 36.368C40.6814 36.1067 40.6161 35.8453 40.6161 35.584C40.6161 35.1547 40.7654 34.7813 41.0641 34.464C41.3814 34.128 41.7734 33.96 42.2401 33.96C42.5948 33.96 42.9121 34.072 43.1921 34.296C43.9014 34.8747 44.6014 35.3133 45.2921 35.612C46.0014 35.9107 46.8694 36.06 47.8961 36.06C48.5868 36.06 49.2214 35.9573 49.8001 35.752C50.3788 35.528 50.8454 35.2387 51.2001 34.884C51.5548 34.5107 51.7321 34.0907 51.7321 33.624C51.7321 33.064 51.5641 32.588 51.2281 32.196C50.8921 31.804 50.3788 31.4773 49.6881 31.216C48.9974 30.936 48.1201 30.7213 47.0561 30.572C46.0481 30.4227 45.1614 30.1987 44.3961 29.9C43.6308 29.5827 42.9868 29.1907 42.4641 28.724C41.9601 28.2387 41.5774 27.6787 41.3161 27.044C41.0548 26.3907 40.9241 25.6627 40.9241 24.86C40.9241 23.6467 41.2321 22.6107 41.8481 21.752C42.4828 20.8933 43.3321 20.24 44.3961 19.792C45.4601 19.344 46.6361 19.12 47.9241 19.12C49.1374 19.12 50.2574 19.3067 51.2841 19.68C52.3294 20.0347 53.1788 20.492 53.8321 21.052C54.3734 21.4813 54.6441 21.976 54.6441 22.536C54.6441 22.9467 54.4854 23.32 54.1681 23.656C53.8508 23.992 53.4774 24.16 53.0481 24.16C52.7681 24.16 52.5161 24.076 52.2921 23.908C51.9934 23.6467 51.5921 23.404 51.0881 23.18C50.5841 22.9373 50.0521 22.7413 49.4921 22.592C48.9321 22.424 48.4094 22.34 47.9241 22.34C47.1214 22.34 46.4401 22.4427 45.8801 22.648C45.3388 22.8533 44.9281 23.1333 44.6481 23.488C44.3681 23.8427 44.2281 24.2533 44.2281 24.72C44.2281 25.28 44.3868 25.7467 44.7041 26.12C45.0401 26.4747 45.5161 26.764 46.1321 26.988C46.7481 27.1933 47.4854 27.38 48.3441 27.548C49.4641 27.7533 50.4441 27.996 51.2841 28.276C52.1428 28.556 52.8521 28.92 53.4121 29.368C53.9721 29.7973 54.3921 30.348 54.6721 31.02C54.9521 31.6733 55.0921 32.476 55.0921 33.428C55.0921 34.6413 54.7561 35.6867 54.0841 36.564C53.4121 37.4413 52.5254 38.1133 51.4241 38.58C50.3414 39.0467 49.1654 39.28 47.8961 39.28ZM69.1111 35.724C69.5965 35.724 69.9978 35.8827 70.3151 36.2C70.6511 36.4987 70.8191 36.8907 70.8191 37.376C70.8191 37.8427 70.6511 38.2347 70.3151 38.552C69.9978 38.8507 69.5965 39 69.1111 39H60.0111C59.5258 39 59.1151 38.8413 58.7791 38.524C58.4618 38.188 58.3031 37.7773 58.3031 37.292V21.108C58.3031 20.6227 58.4711 20.2213 58.8071 19.904C59.1431 19.568 59.5725 19.4 60.0951 19.4C60.5431 19.4 60.9351 19.568 61.2711 19.904C61.6258 20.2213 61.8031 20.6227 61.8031 21.108V36.2L61.1871 35.724H69.1111ZM86.0098 23.74C86.4951 23.74 86.8964 23.8987 87.2138 24.216C87.5311 24.5333 87.6898 24.944 87.6898 25.448V37.292C87.6898 37.7773 87.5311 38.188 87.2138 38.524C86.8964 38.8413 86.4951 39 86.0098 39C85.5244 39 85.1231 38.8413 84.8058 38.524C84.4884 38.188 84.3298 37.7773 84.3298 37.292V35.92L84.9458 36.172C84.9458 36.4147 84.8151 36.7133 84.5538 37.068C84.2924 37.404 83.9378 37.74 83.4898 38.076C83.0418 38.412 82.5098 38.7013 81.8938 38.944C81.2964 39.168 80.6431 39.28 79.9338 39.28C78.6458 39.28 77.4791 38.9533 76.4338 38.3C75.3884 37.628 74.5578 36.7133 73.9418 35.556C73.3444 34.38 73.0458 33.036 73.0458 31.524C73.0458 29.9933 73.3444 28.6493 73.9418 27.492C74.5578 26.316 75.3791 25.4013 76.4058 24.748C77.4324 24.076 78.5711 23.74 79.8218 23.74C80.6244 23.74 81.3618 23.8613 82.0338 24.104C82.7058 24.3467 83.2844 24.6547 83.7698 25.028C84.2738 25.4013 84.6564 25.784 84.9178 26.176C85.1978 26.5493 85.3378 26.8667 85.3378 27.128L84.3298 27.492V25.448C84.3298 24.9627 84.4884 24.5613 84.8058 24.244C85.1231 23.908 85.5244 23.74 86.0098 23.74ZM80.3538 36.2C81.1751 36.2 81.8938 35.9947 82.5098 35.584C83.1258 35.1733 83.6018 34.6133 83.9378 33.904C84.2924 33.1947 84.4698 32.4013 84.4698 31.524C84.4698 30.628 84.2924 29.8253 83.9378 29.116C83.6018 28.4067 83.1258 27.8467 82.5098 27.436C81.8938 27.0253 81.1751 26.82 80.3538 26.82C79.5511 26.82 78.8418 27.0253 78.2258 27.436C77.6098 27.8467 77.1244 28.4067 76.7698 29.116C76.4338 29.8253 76.2658 30.628 76.2658 31.524C76.2658 32.4013 76.4338 33.1947 76.7698 33.904C77.1244 34.6133 77.6098 35.1733 78.2258 35.584C78.8418 35.9947 79.5511 36.2 80.3538 36.2ZM99.0838 23.74C100.39 23.74 101.557 24.076 102.584 24.748C103.629 25.4013 104.45 26.3067 105.048 27.464C105.664 28.6213 105.972 29.9653 105.972 31.496C105.972 33.0267 105.664 34.38 105.048 35.556C104.45 36.7133 103.638 37.628 102.612 38.3C101.604 38.9533 100.465 39.28 99.1958 39.28C98.4491 39.28 97.7491 39.1587 97.0958 38.916C96.4425 38.6733 95.8638 38.3653 95.3598 37.992C94.8745 37.6187 94.4918 37.2453 94.2118 36.872C93.9505 36.48 93.8198 36.1533 93.8198 35.892L94.6878 35.528V37.572C94.6878 38.0573 94.5291 38.468 94.2118 38.804C93.8945 39.1213 93.4931 39.28 93.0078 39.28C92.5225 39.28 92.1211 39.1213 91.8038 38.804C91.4865 38.4867 91.3278 38.076 91.3278 37.572V19.988C91.3278 19.5027 91.4865 19.1013 91.8038 18.784C92.1211 18.448 92.5225 18.28 93.0078 18.28C93.4931 18.28 93.8945 18.448 94.2118 18.784C94.5291 19.1013 94.6878 19.5027 94.6878 19.988V27.1L94.2118 26.848C94.2118 26.6053 94.3425 26.316 94.6038 25.98C94.8651 25.6253 95.2198 25.28 95.6678 24.944C96.1158 24.5893 96.6291 24.3 97.2078 24.076C97.8051 23.852 98.4305 23.74 99.0838 23.74ZM98.6638 26.82C97.8425 26.82 97.1238 27.0253 96.5078 27.436C95.8918 27.8467 95.4065 28.4067 95.0518 29.116C94.7158 29.8067 94.5478 30.6 94.5478 31.496C94.5478 32.3733 94.7158 33.176 95.0518 33.904C95.4065 34.6133 95.8918 35.1733 96.5078 35.584C97.1238 35.9947 97.8425 36.2 98.6638 36.2C99.4851 36.2 100.194 35.9947 100.792 35.584C101.408 35.1733 101.884 34.6133 102.22 33.904C102.574 33.176 102.752 32.3733 102.752 31.496C102.752 30.6 102.574 29.8067 102.22 29.116C101.884 28.4067 101.408 27.8467 100.792 27.436C100.194 27.0253 99.4851 26.82 98.6638 26.82Z" fill="white"/>
</g>
<g filter="url(#filter1_d_1_88)">
<path d="M7.87172 70.131C7.99638 70.131 8.10272 70.175 8.19072 70.263C8.27872 70.3437 8.32272 70.4463 8.32272 70.571C8.32272 70.6957 8.27872 70.7983 8.19072 70.879C8.10272 70.9597 7.99638 71 7.87172 71H4.06571C3.94105 71 3.83471 70.956 3.74671 70.868C3.66605 70.78 3.62571 70.6737 3.62571 70.549V63.74C3.62571 63.6153 3.66971 63.5127 3.75771 63.432C3.84571 63.344 3.95571 63.3 4.08771 63.3C4.21238 63.3 4.31871 63.344 4.40671 63.432C4.49471 63.5127 4.53871 63.6153 4.53871 63.74V70.329L4.31871 70.131H7.87172ZM14.1196 65.258C14.2443 65.258 14.347 65.302 14.4276 65.39C14.5156 65.4707 14.5596 65.5733 14.5596 65.698V70.549C14.5596 70.6737 14.5156 70.78 14.4276 70.868C14.347 70.956 14.2443 71 14.1196 71C13.9876 71 13.8813 70.956 13.8006 70.868C13.72 70.78 13.6796 70.6737 13.6796 70.549V69.504L13.8886 69.482C13.8886 69.6433 13.8336 69.8193 13.7236 70.01C13.6136 70.2007 13.4633 70.3803 13.2726 70.549C13.082 70.7103 12.8546 70.846 12.5906 70.956C12.334 71.0587 12.0553 71.11 11.7546 71.11C11.256 71.11 10.8086 70.9817 10.4126 70.725C10.0166 70.461 9.7013 70.1053 9.46663 69.658C9.2393 69.2107 9.12563 68.701 9.12563 68.129C9.12563 67.5497 9.2393 67.04 9.46663 66.6C9.7013 66.1527 10.0166 65.8043 10.4126 65.555C10.8086 65.2983 11.2486 65.17 11.7326 65.17C12.048 65.17 12.3413 65.2213 12.6126 65.324C12.884 65.4267 13.1186 65.566 13.3166 65.742C13.522 65.918 13.6796 66.1123 13.7896 66.325C13.907 66.5377 13.9656 66.7503 13.9656 66.963L13.6796 66.897V65.698C13.6796 65.5733 13.72 65.4707 13.8006 65.39C13.8813 65.302 13.9876 65.258 14.1196 65.258ZM11.8536 70.296C12.2203 70.296 12.543 70.2007 12.8216 70.01C13.1076 69.8193 13.3276 69.5627 13.4816 69.24C13.643 68.91 13.7236 68.5397 13.7236 68.129C13.7236 67.7257 13.643 67.3627 13.4816 67.04C13.3276 66.71 13.1076 66.4533 12.8216 66.27C12.543 66.0793 12.2203 65.984 11.8536 65.984C11.4943 65.984 11.1716 66.0757 10.8856 66.259C10.607 66.4423 10.387 66.6953 10.2256 67.018C10.0643 67.3407 9.98363 67.711 9.98363 68.129C9.98363 68.5397 10.0606 68.91 10.2146 69.24C10.376 69.5627 10.596 69.8193 10.8746 70.01C11.1606 70.2007 11.487 70.296 11.8536 70.296ZM18.9955 65.17C19.4941 65.17 19.9415 65.2983 20.3375 65.555C20.7335 65.8043 21.0451 66.149 21.2725 66.589C21.5071 67.029 21.6245 67.5387 21.6245 68.118C21.6245 68.6973 21.5071 69.2107 21.2725 69.658C21.0451 70.1053 20.7335 70.461 20.3375 70.725C19.9488 70.9817 19.5088 71.11 19.0175 71.11C18.7461 71.11 18.4895 71.0697 18.2475 70.989C18.0128 70.901 17.7965 70.7873 17.5985 70.648C17.4078 70.5013 17.2465 70.3437 17.1145 70.175C16.9825 69.999 16.8871 69.8267 16.8285 69.658L17.0705 69.504V70.604C17.0705 70.7287 17.0301 70.835 16.9495 70.923C16.8688 71.011 16.7625 71.055 16.6305 71.055C16.5058 71.055 16.3995 71.0147 16.3115 70.934C16.2308 70.846 16.1905 70.736 16.1905 70.604V63.311C16.1905 63.1863 16.2308 63.08 16.3115 62.992C16.3995 62.904 16.5058 62.86 16.6305 62.86C16.7625 62.86 16.8688 62.904 16.9495 62.992C17.0301 63.08 17.0705 63.1863 17.0705 63.311V66.699L16.9055 66.611C16.9568 66.4277 17.0448 66.2517 17.1695 66.083C17.3015 65.907 17.4591 65.753 17.6425 65.621C17.8331 65.4817 18.0421 65.3717 18.2695 65.291C18.5041 65.2103 18.7461 65.17 18.9955 65.17ZM18.8965 65.984C18.5298 65.984 18.2035 66.0757 17.9175 66.259C17.6388 66.4423 17.4188 66.6953 17.2575 67.018C17.1035 67.3407 17.0265 67.7073 17.0265 68.118C17.0265 68.5287 17.1035 68.899 17.2575 69.229C17.4188 69.559 17.6388 69.8193 17.9175 70.01C18.2035 70.2007 18.5298 70.296 18.8965 70.296C19.2631 70.296 19.5858 70.2007 19.8645 70.01C20.1431 69.8193 20.3631 69.559 20.5245 69.229C20.6858 68.899 20.7665 68.5287 20.7665 68.118C20.7665 67.7073 20.6858 67.3407 20.5245 67.018C20.3631 66.6953 20.1431 66.4423 19.8645 66.259C19.5858 66.0757 19.2631 65.984 18.8965 65.984ZM28.3483 68.14C28.3483 68.712 28.22 69.2217 27.9633 69.669C27.714 70.1163 27.373 70.4683 26.9403 70.725C26.515 70.9817 26.0346 71.11 25.4993 71.11C24.964 71.11 24.48 70.9817 24.0473 70.725C23.6146 70.4683 23.27 70.1163 23.0133 69.669C22.764 69.2217 22.6393 68.712 22.6393 68.14C22.6393 67.568 22.764 67.0583 23.0133 66.611C23.27 66.1637 23.6146 65.8117 24.0473 65.555C24.48 65.2983 24.964 65.17 25.4993 65.17C26.0346 65.17 26.515 65.2983 26.9403 65.555C27.373 65.8117 27.714 66.1637 27.9633 66.611C28.22 67.0583 28.3483 67.568 28.3483 68.14ZM27.4683 68.14C27.4683 67.7147 27.3803 67.3407 27.2043 67.018C27.0356 66.6953 26.801 66.4423 26.5003 66.259C26.207 66.0757 25.8733 65.984 25.4993 65.984C25.1253 65.984 24.788 66.0757 24.4873 66.259C24.194 66.4423 23.9593 66.6953 23.7833 67.018C23.6073 67.3407 23.5193 67.7147 23.5193 68.14C23.5193 68.558 23.6073 68.9283 23.7833 69.251C23.9593 69.5737 24.194 69.8303 24.4873 70.021C24.788 70.2043 25.1253 70.296 25.4993 70.296C25.8733 70.296 26.207 70.2043 26.5003 70.021C26.801 69.8303 27.0356 69.5737 27.2043 69.251C27.3803 68.9283 27.4683 68.558 27.4683 68.14ZM30.1119 71C29.9872 71 29.8809 70.956 29.7929 70.868C29.7122 70.78 29.6719 70.6737 29.6719 70.549V65.753C29.6719 65.6283 29.7122 65.5257 29.7929 65.445C29.8809 65.357 29.9872 65.313 30.1119 65.313C30.2439 65.313 30.3502 65.357 30.4309 65.445C30.5116 65.5257 30.5519 65.6283 30.5519 65.753V67.205L30.4199 66.974C30.4639 66.7467 30.5409 66.5267 30.6509 66.314C30.7682 66.094 30.9149 65.8997 31.0909 65.731C31.2669 65.555 31.4686 65.4193 31.6959 65.324C31.9232 65.2213 32.1726 65.17 32.4439 65.17C32.6052 65.17 32.7519 65.2103 32.8839 65.291C33.0232 65.3643 33.0929 65.4707 33.0929 65.61C33.0929 65.764 33.0526 65.8777 32.9719 65.951C32.8912 66.0243 32.7996 66.061 32.6969 66.061C32.6016 66.061 32.5099 66.0427 32.4219 66.006C32.3339 65.962 32.2239 65.94 32.0919 65.94C31.9086 65.94 31.7252 65.9913 31.5419 66.094C31.3659 66.1893 31.2009 66.3287 31.0469 66.512C30.9002 66.6953 30.7792 66.9043 30.6839 67.139C30.5959 67.3663 30.5519 67.612 30.5519 67.876V70.549C30.5519 70.6737 30.5079 70.78 30.4199 70.868C30.3392 70.956 30.2366 71 30.1119 71ZM38.644 65.258C38.7687 65.258 38.8714 65.302 38.952 65.39C39.04 65.4707 39.084 65.5733 39.084 65.698V70.549C39.084 70.6737 39.04 70.78 38.952 70.868C38.8714 70.956 38.7687 71 38.644 71C38.512 71 38.4057 70.956 38.325 70.868C38.2444 70.78 38.204 70.6737 38.204 70.549V69.504L38.413 69.482C38.413 69.6433 38.358 69.8193 38.248 70.01C38.138 70.2007 37.9877 70.3803 37.797 70.549C37.6064 70.7103 37.379 70.846 37.115 70.956C36.8584 71.0587 36.5797 71.11 36.279 71.11C35.7804 71.11 35.333 70.9817 34.937 70.725C34.541 70.461 34.2257 70.1053 33.991 69.658C33.7637 69.2107 33.65 68.701 33.65 68.129C33.65 67.5497 33.7637 67.04 33.991 66.6C34.2257 66.1527 34.541 65.8043 34.937 65.555C35.333 65.2983 35.773 65.17 36.257 65.17C36.5724 65.17 36.8657 65.2213 37.137 65.324C37.4084 65.4267 37.643 65.566 37.841 65.742C38.0464 65.918 38.204 66.1123 38.314 66.325C38.4314 66.5377 38.49 66.7503 38.49 66.963L38.204 66.897V65.698C38.204 65.5733 38.2444 65.4707 38.325 65.39C38.4057 65.302 38.512 65.258 38.644 65.258ZM36.378 70.296C36.7447 70.296 37.0674 70.2007 37.346 70.01C37.632 69.8193 37.852 69.5627 38.006 69.24C38.1674 68.91 38.248 68.5397 38.248 68.129C38.248 67.7257 38.1674 67.3627 38.006 67.04C37.852 66.71 37.632 66.4533 37.346 66.27C37.0674 66.0793 36.7447 65.984 36.378 65.984C36.0187 65.984 35.696 66.0757 35.41 66.259C35.1314 66.4423 34.9114 66.6953 34.75 67.018C34.5887 67.3407 34.508 67.711 34.508 68.129C34.508 68.5397 34.585 68.91 34.739 69.24C34.9004 69.5627 35.1204 69.8193 35.399 70.01C35.685 70.2007 36.0114 70.296 36.378 70.296ZM40.4949 65.346H43.0799C43.1972 65.346 43.2925 65.3863 43.3659 65.467C43.4465 65.5477 43.4869 65.643 43.4869 65.753C43.4869 65.8703 43.4465 65.9693 43.3659 66.05C43.2925 66.1233 43.1972 66.16 43.0799 66.16H40.4949C40.3849 66.16 40.2895 66.1197 40.2089 66.039C40.1282 65.9583 40.0879 65.8593 40.0879 65.742C40.0879 65.632 40.1282 65.5403 40.2089 65.467C40.2895 65.3863 40.3849 65.346 40.4949 65.346ZM41.6499 63.85C41.7745 63.85 41.8772 63.894 41.9579 63.982C42.0385 64.0627 42.0789 64.1653 42.0789 64.29V69.603C42.0789 69.779 42.1045 69.911 42.1559 69.999C42.2072 70.087 42.2732 70.1493 42.3539 70.186C42.4419 70.2153 42.5262 70.23 42.6069 70.23C42.6802 70.23 42.7425 70.219 42.7939 70.197C42.8525 70.1677 42.9185 70.153 42.9919 70.153C43.0652 70.153 43.1312 70.1897 43.1899 70.263C43.2559 70.329 43.2889 70.417 43.2889 70.527C43.2889 70.659 43.2119 70.7727 43.0579 70.868C42.9039 70.956 42.7315 71 42.5409 71C42.4382 71 42.3099 70.9927 42.1559 70.978C42.0092 70.9633 41.8625 70.9157 41.7159 70.835C41.5692 70.7543 41.4445 70.6223 41.3419 70.439C41.2465 70.2483 41.1989 69.9843 41.1989 69.647V64.29C41.1989 64.1653 41.2429 64.0627 41.3309 63.982C41.4189 63.894 41.5252 63.85 41.6499 63.85ZM50.112 68.14C50.112 68.712 49.9836 69.2217 49.727 69.669C49.4776 70.1163 49.1366 70.4683 48.704 70.725C48.2786 70.9817 47.7983 71.11 47.263 71.11C46.7276 71.11 46.2436 70.9817 45.811 70.725C45.3783 70.4683 45.0336 70.1163 44.777 69.669C44.5276 69.2217 44.403 68.712 44.403 68.14C44.403 67.568 44.5276 67.0583 44.777 66.611C45.0336 66.1637 45.3783 65.8117 45.811 65.555C46.2436 65.2983 46.7276 65.17 47.263 65.17C47.7983 65.17 48.2786 65.2983 48.704 65.555C49.1366 65.8117 49.4776 66.1637 49.727 66.611C49.9836 67.0583 50.112 67.568 50.112 68.14ZM49.232 68.14C49.232 67.7147 49.144 67.3407 48.968 67.018C48.7993 66.6953 48.5646 66.4423 48.264 66.259C47.9706 66.0757 47.637 65.984 47.263 65.984C46.889 65.984 46.5516 66.0757 46.251 66.259C45.9576 66.4423 45.723 66.6953 45.547 67.018C45.371 67.3407 45.283 67.7147 45.283 68.14C45.283 68.558 45.371 68.9283 45.547 69.251C45.723 69.5737 45.9576 69.8303 46.251 70.021C46.5516 70.2043 46.889 70.296 47.263 70.296C47.637 70.296 47.9706 70.2043 48.264 70.021C48.5646 69.8303 48.7993 69.5737 48.968 69.251C49.144 68.9283 49.232 68.558 49.232 68.14ZM47.197 64.807C47.1456 64.807 47.0906 64.785 47.032 64.741C46.9806 64.697 46.955 64.6383 46.955 64.565C46.955 64.5137 46.977 64.455 47.021 64.389L47.681 63.311C47.725 63.2377 47.7836 63.168 47.857 63.102C47.9303 63.036 48.0183 63.003 48.121 63.003C48.2676 63.003 48.3776 63.0433 48.451 63.124C48.5243 63.1973 48.561 63.2963 48.561 63.421C48.5536 63.4797 48.539 63.5347 48.517 63.586C48.495 63.6373 48.462 63.6923 48.418 63.751L47.582 64.631C47.5306 64.6897 47.4683 64.7337 47.395 64.763C47.329 64.7923 47.263 64.807 47.197 64.807ZM51.8756 71C51.7509 71 51.6446 70.956 51.5566 70.868C51.4759 70.78 51.4356 70.6737 51.4356 70.549V65.753C51.4356 65.6283 51.4759 65.5257 51.5566 65.445C51.6446 65.357 51.7509 65.313 51.8756 65.313C52.0076 65.313 52.1139 65.357 52.1946 65.445C52.2752 65.5257 52.3156 65.6283 52.3156 65.753V67.205L52.1836 66.974C52.2276 66.7467 52.3046 66.5267 52.4146 66.314C52.5319 66.094 52.6786 65.8997 52.8546 65.731C53.0306 65.555 53.2322 65.4193 53.4596 65.324C53.6869 65.2213 53.9362 65.17 54.2076 65.17C54.3689 65.17 54.5156 65.2103 54.6476 65.291C54.7869 65.3643 54.8566 65.4707 54.8566 65.61C54.8566 65.764 54.8162 65.8777 54.7356 65.951C54.6549 66.0243 54.5632 66.061 54.4606 66.061C54.3652 66.061 54.2736 66.0427 54.1856 66.006C54.0976 65.962 53.9876 65.94 53.8556 65.94C53.6722 65.94 53.4889 65.9913 53.3056 66.094C53.1296 66.1893 52.9646 66.3287 52.8106 66.512C52.6639 66.6953 52.5429 66.9043 52.4476 67.139C52.3596 67.3663 52.3156 67.612 52.3156 67.876V70.549C52.3156 70.6737 52.2716 70.78 52.1836 70.868C52.1029 70.956 52.0002 71 51.8756 71ZM56.6976 70.549C56.6976 70.6737 56.6536 70.78 56.5656 70.868C56.485 70.956 56.3823 71 56.2576 71C56.1256 71 56.0193 70.956 55.9386 70.868C55.858 70.78 55.8176 70.6737 55.8176 70.549V65.665C55.8176 65.5403 55.858 65.4377 55.9386 65.357C56.0266 65.269 56.133 65.225 56.2576 65.225C56.3823 65.225 56.485 65.269 56.5656 65.357C56.6536 65.4377 56.6976 65.5403 56.6976 65.665V70.549ZM56.2576 64.488C56.0743 64.488 55.9386 64.4513 55.8506 64.378C55.7626 64.3047 55.7186 64.191 55.7186 64.037V63.883C55.7186 63.729 55.7663 63.6153 55.8616 63.542C55.957 63.4687 56.0926 63.432 56.2686 63.432C56.4446 63.432 56.5766 63.4687 56.6646 63.542C56.7526 63.6153 56.7966 63.729 56.7966 63.883V64.037C56.7966 64.191 56.749 64.3047 56.6536 64.378C56.5656 64.4513 56.4336 64.488 56.2576 64.488ZM63.6794 68.14C63.6794 68.712 63.551 69.2217 63.2944 69.669C63.045 70.1163 62.704 70.4683 62.2714 70.725C61.846 70.9817 61.3657 71.11 60.8304 71.11C60.295 71.11 59.811 70.9817 59.3784 70.725C58.9457 70.4683 58.601 70.1163 58.3444 69.669C58.095 69.2217 57.9704 68.712 57.9704 68.14C57.9704 67.568 58.095 67.0583 58.3444 66.611C58.601 66.1637 58.9457 65.8117 59.3784 65.555C59.811 65.2983 60.295 65.17 60.8304 65.17C61.3657 65.17 61.846 65.2983 62.2714 65.555C62.704 65.8117 63.045 66.1637 63.2944 66.611C63.551 67.0583 63.6794 67.568 63.6794 68.14ZM62.7994 68.14C62.7994 67.7147 62.7114 67.3407 62.5354 67.018C62.3667 66.6953 62.132 66.4423 61.8314 66.259C61.538 66.0757 61.2044 65.984 60.8304 65.984C60.4564 65.984 60.119 66.0757 59.8184 66.259C59.525 66.4423 59.2904 66.6953 59.1144 67.018C58.9384 67.3407 58.8504 67.7147 58.8504 68.14C58.8504 68.558 58.9384 68.9283 59.1144 69.251C59.2904 69.5737 59.525 69.8303 59.8184 70.021C60.119 70.2043 60.4564 70.296 60.8304 70.296C61.2044 70.296 61.538 70.2043 61.8314 70.021C62.132 69.8303 62.3667 69.5737 62.5354 69.251C62.7114 68.9283 62.7994 68.558 62.7994 68.14ZM72.7183 62.86C72.8429 62.86 72.9456 62.904 73.0263 62.992C73.1143 63.0727 73.1583 63.1753 73.1583 63.3V70.549C73.1583 70.6737 73.1143 70.78 73.0263 70.868C72.9456 70.956 72.8429 71 72.7183 71C72.5863 71 72.4799 70.956 72.3993 70.868C72.3186 70.78 72.2783 70.6737 72.2783 70.549V69.504L72.4873 69.427C72.4873 69.603 72.4323 69.79 72.3223 69.988C72.2123 70.1787 72.0619 70.3583 71.8713 70.527C71.6806 70.6957 71.4533 70.835 71.1893 70.945C70.9326 71.055 70.6539 71.11 70.3533 71.11C69.8619 71.11 69.4146 70.9817 69.0113 70.725C68.6153 70.4683 68.2999 70.1163 68.0653 69.669C67.8379 69.2217 67.7243 68.712 67.7243 68.14C67.7243 67.5607 67.8379 67.0473 68.0653 66.6C68.2999 66.1527 68.6153 65.8043 69.0113 65.555C69.4073 65.2983 69.8473 65.17 70.3313 65.17C70.6393 65.17 70.9289 65.2213 71.2003 65.324C71.4716 65.4267 71.7063 65.566 71.9043 65.742C72.1096 65.918 72.2709 66.1123 72.3883 66.325C72.5056 66.5377 72.5643 66.7503 72.5643 66.963L72.2783 66.897V63.3C72.2783 63.1753 72.3186 63.0727 72.3993 62.992C72.4799 62.904 72.5863 62.86 72.7183 62.86ZM70.4523 70.296C70.8189 70.296 71.1416 70.2043 71.4203 70.021C71.7063 69.8303 71.9263 69.5737 72.0803 69.251C72.2416 68.921 72.3223 68.5507 72.3223 68.14C72.3223 67.722 72.2416 67.3517 72.0803 67.029C71.9263 66.7063 71.7063 66.4533 71.4203 66.27C71.1416 66.0793 70.8189 65.984 70.4523 65.984C70.0929 65.984 69.7703 66.0793 69.4843 66.27C69.2056 66.4533 68.9856 66.7063 68.8243 67.029C68.6629 67.3517 68.5823 67.722 68.5823 68.14C68.5823 68.5433 68.6629 68.91 68.8243 69.24C68.9856 69.5627 69.2056 69.8193 69.4843 70.01C69.7703 70.2007 70.0929 70.296 70.4523 70.296ZM77.4181 71.11C76.8314 71.11 76.3181 70.9853 75.8781 70.736C75.4381 70.4867 75.0934 70.1457 74.8441 69.713C74.6021 69.273 74.4811 68.767 74.4811 68.195C74.4811 67.557 74.6058 67.0143 74.8551 66.567C75.1118 66.1123 75.4418 65.7677 75.8451 65.533C76.2558 65.291 76.6884 65.17 77.1431 65.17C77.4804 65.17 77.8068 65.2323 78.1221 65.357C78.4374 65.4817 78.7161 65.665 78.9581 65.907C79.2001 66.1417 79.3944 66.4277 79.5411 66.765C79.6878 67.095 79.7648 67.4653 79.7721 67.876C79.7721 67.9933 79.7281 68.0923 79.6401 68.173C79.5521 68.2537 79.4494 68.294 79.3321 68.294H74.9871L74.7891 67.535H79.0241L78.8481 67.689V67.447C78.8188 67.1463 78.7161 66.8897 78.5401 66.677C78.3714 66.457 78.1624 66.2883 77.9131 66.171C77.6711 66.0537 77.4144 65.995 77.1431 65.995C76.9231 65.995 76.7031 66.0353 76.4831 66.116C76.2704 66.1893 76.0761 66.314 75.9001 66.49C75.7314 66.6587 75.5921 66.8787 75.4821 67.15C75.3794 67.4213 75.3281 67.7477 75.3281 68.129C75.3281 68.5543 75.4124 68.9283 75.5811 69.251C75.7571 69.5737 75.9991 69.8303 76.3071 70.021C76.6151 70.2043 76.9744 70.296 77.3851 70.296C77.6418 70.296 77.8654 70.263 78.0561 70.197C78.2468 70.131 78.4118 70.0503 78.5511 69.955C78.6904 69.8523 78.8078 69.7497 78.9031 69.647C78.9984 69.581 79.0901 69.548 79.1781 69.548C79.2881 69.548 79.3761 69.5847 79.4421 69.658C79.5154 69.7313 79.5521 69.8193 79.5521 69.922C79.5521 70.0467 79.4934 70.1567 79.3761 70.252C79.1708 70.4793 78.8921 70.681 78.5401 70.857C78.1881 71.0257 77.8141 71.11 77.4181 71.11ZM84.7291 71C84.5971 71 84.4871 70.956 84.3991 70.868C84.3184 70.78 84.2781 70.6737 84.2781 70.549V63.74C84.2781 63.6153 84.3184 63.5127 84.3991 63.432C84.4871 63.344 84.5934 63.3 84.7181 63.3H88.5791C88.7037 63.3 88.8101 63.3403 88.8981 63.421C88.9861 63.5017 89.0301 63.6043 89.0301 63.729C89.0301 63.8463 88.9861 63.9453 88.8981 64.026C88.8101 64.1067 88.7037 64.147 88.5791 64.147H85.1141L85.1801 64.059V66.754L85.1251 66.633H88.0841C88.2087 66.633 88.3151 66.677 88.4031 66.765C88.4911 66.8457 88.5351 66.9483 88.5351 67.073C88.5351 67.183 88.4911 67.282 88.4031 67.37C88.3151 67.4507 88.2087 67.491 88.0841 67.491H85.1031L85.1801 67.392V70.549C85.1801 70.6737 85.1361 70.78 85.0481 70.868C84.9601 70.956 84.8537 71 84.7291 71ZM94.8149 65.258C94.9396 65.258 95.0423 65.302 95.1229 65.39C95.2109 65.4707 95.2549 65.5733 95.2549 65.698V70.549C95.2549 70.6737 95.2109 70.78 95.1229 70.868C95.0423 70.956 94.9396 71 94.8149 71C94.6829 71 94.5766 70.956 94.4959 70.868C94.4153 70.78 94.3749 70.6737 94.3749 70.549V69.504L94.5839 69.482C94.5839 69.6433 94.5289 69.8193 94.4189 70.01C94.3089 70.2007 94.1586 70.3803 93.9679 70.549C93.7773 70.7103 93.5499 70.846 93.2859 70.956C93.0293 71.0587 92.7506 71.11 92.4499 71.11C91.9513 71.11 91.5039 70.9817 91.1079 70.725C90.7119 70.461 90.3966 70.1053 90.1619 69.658C89.9346 69.2107 89.8209 68.701 89.8209 68.129C89.8209 67.5497 89.9346 67.04 90.1619 66.6C90.3966 66.1527 90.7119 65.8043 91.1079 65.555C91.5039 65.2983 91.9439 65.17 92.4279 65.17C92.7433 65.17 93.0366 65.2213 93.3079 65.324C93.5793 65.4267 93.8139 65.566 94.0119 65.742C94.2173 65.918 94.3749 66.1123 94.4849 66.325C94.6023 66.5377 94.6609 66.7503 94.6609 66.963L94.3749 66.897V65.698C94.3749 65.5733 94.4153 65.4707 94.4959 65.39C94.5766 65.302 94.6829 65.258 94.8149 65.258ZM92.5489 70.296C92.9156 70.296 93.2383 70.2007 93.5169 70.01C93.8029 69.8193 94.0229 69.5627 94.1769 69.24C94.3383 68.91 94.4189 68.5397 94.4189 68.129C94.4189 67.7257 94.3383 67.3627 94.1769 67.04C94.0229 66.71 93.8029 66.4533 93.5169 66.27C93.2383 66.0793 92.9156 65.984 92.5489 65.984C92.1896 65.984 91.8669 66.0757 91.5809 66.259C91.3023 66.4423 91.0823 66.6953 90.9209 67.018C90.7596 67.3407 90.6789 67.711 90.6789 68.129C90.6789 68.5397 90.7559 68.91 90.9099 69.24C91.0713 69.5627 91.2913 69.8193 91.5699 70.01C91.8559 70.2007 92.1823 70.296 92.5489 70.296ZM92.5489 64.862C92.4976 64.862 92.4426 64.84 92.3839 64.796C92.3326 64.752 92.3069 64.6933 92.3069 64.62C92.3069 64.5687 92.3289 64.51 92.3729 64.444L93.0329 63.366C93.0769 63.2927 93.1356 63.223 93.2089 63.157C93.2823 63.091 93.3703 63.058 93.4729 63.058C93.6196 63.058 93.7296 63.0983 93.8029 63.179C93.8763 63.2523 93.9129 63.3513 93.9129 63.476C93.9056 63.5347 93.8909 63.5897 93.8689 63.641C93.8469 63.6923 93.8139 63.7473 93.7699 63.806L92.9339 64.686C92.8826 64.7447 92.8203 64.7887 92.7469 64.818C92.6809 64.8473 92.6149 64.862 92.5489 64.862ZM99.6908 65.17C100.189 65.17 100.637 65.2983 101.033 65.555C101.429 65.8043 101.74 66.149 101.968 66.589C102.202 67.029 102.32 67.5387 102.32 68.118C102.32 68.6973 102.202 69.2107 101.968 69.658C101.74 70.1053 101.429 70.461 101.033 70.725C100.644 70.9817 100.204 71.11 99.7128 71.11C99.4414 71.11 99.1848 71.0697 98.9428 70.989C98.7081 70.901 98.4918 70.7873 98.2938 70.648C98.1031 70.5013 97.9418 70.3437 97.8098 70.175C97.6778 69.999 97.5824 69.8267 97.5238 69.658L97.7658 69.504V70.604C97.7658 70.7287 97.7254 70.835 97.6448 70.923C97.5641 71.011 97.4578 71.055 97.3258 71.055C97.2011 71.055 97.0948 71.0147 97.0068 70.934C96.9261 70.846 96.8858 70.736 96.8858 70.604V63.311C96.8858 63.1863 96.9261 63.08 97.0068 62.992C97.0948 62.904 97.2011 62.86 97.3258 62.86C97.4578 62.86 97.5641 62.904 97.6448 62.992C97.7254 63.08 97.7658 63.1863 97.7658 63.311V66.699L97.6008 66.611C97.6521 66.4277 97.7401 66.2517 97.8648 66.083C97.9968 65.907 98.1544 65.753 98.3378 65.621C98.5284 65.4817 98.7374 65.3717 98.9648 65.291C99.1994 65.2103 99.4414 65.17 99.6908 65.17ZM99.5918 65.984C99.2251 65.984 98.8988 66.0757 98.6128 66.259C98.3341 66.4423 98.1141 66.6953 97.9528 67.018C97.7988 67.3407 97.7218 67.7073 97.7218 68.118C97.7218 68.5287 97.7988 68.899 97.9528 69.229C98.1141 69.559 98.3341 69.8193 98.6128 70.01C98.8988 70.2007 99.2251 70.296 99.5918 70.296C99.9584 70.296 100.281 70.2007 100.56 70.01C100.838 69.8193 101.058 69.559 101.22 69.229C101.381 68.899 101.462 68.5287 101.462 68.118C101.462 67.7073 101.381 67.3407 101.22 67.018C101.058 66.6953 100.838 66.4423 100.56 66.259C100.281 66.0757 99.9584 65.984 99.5918 65.984ZM104.083 71C103.958 71 103.852 70.956 103.764 70.868C103.683 70.78 103.643 70.6737 103.643 70.549V65.753C103.643 65.6283 103.683 65.5257 103.764 65.445C103.852 65.357 103.958 65.313 104.083 65.313C104.215 65.313 104.321 65.357 104.402 65.445C104.482 65.5257 104.523 65.6283 104.523 65.753V67.205L104.391 66.974C104.435 66.7467 104.512 66.5267 104.622 66.314C104.739 66.094 104.886 65.8997 105.062 65.731C105.238 65.555 105.439 65.4193 105.667 65.324C105.894 65.2213 106.143 65.17 106.415 65.17C106.576 65.17 106.723 65.2103 106.855 65.291C106.994 65.3643 107.064 65.4707 107.064 65.61C107.064 65.764 107.023 65.8777 106.943 65.951C106.862 66.0243 106.77 66.061 106.668 66.061C106.572 66.061 106.481 66.0427 106.393 66.006C106.305 65.962 106.195 65.94 106.063 65.94C105.879 65.94 105.696 65.9913 105.513 66.094C105.337 66.1893 105.172 66.3287 105.018 66.512C104.871 66.6953 104.75 66.9043 104.655 67.139C104.567 67.3663 104.523 67.612 104.523 67.876V70.549C104.523 70.6737 104.479 70.78 104.391 70.868C104.31 70.956 104.207 71 104.083 71ZM108.905 70.549C108.905 70.6737 108.861 70.78 108.773 70.868C108.692 70.956 108.589 71 108.465 71C108.333 71 108.226 70.956 108.146 70.868C108.065 70.78 108.025 70.6737 108.025 70.549V65.665C108.025 65.5403 108.065 65.4377 108.146 65.357C108.234 65.269 108.34 65.225 108.465 65.225C108.589 65.225 108.692 65.269 108.773 65.357C108.861 65.4377 108.905 65.5403 108.905 65.665V70.549ZM108.465 64.488C108.281 64.488 108.146 64.4513 108.058 64.378C107.97 64.3047 107.926 64.191 107.926 64.037V63.883C107.926 63.729 107.973 63.6153 108.069 63.542C108.164 63.4687 108.3 63.432 108.476 63.432C108.652 63.432 108.784 63.4687 108.872 63.542C108.96 63.6153 109.004 63.729 109.004 63.883V64.037C109.004 64.191 108.956 64.3047 108.861 64.378C108.773 64.4513 108.641 64.488 108.465 64.488ZM113.015 65.17C113.389 65.17 113.727 65.2103 114.027 65.291C114.328 65.3717 114.566 65.4817 114.742 65.621C114.918 65.7603 115.006 65.918 115.006 66.094C115.006 66.1893 114.973 66.281 114.907 66.369C114.841 66.457 114.753 66.501 114.643 66.501C114.541 66.501 114.456 66.4827 114.39 66.446C114.332 66.4093 114.273 66.3617 114.214 66.303C114.163 66.2443 114.09 66.193 113.994 66.149C113.906 66.0977 113.778 66.0573 113.609 66.028C113.441 65.9987 113.272 65.984 113.103 65.984C112.7 65.984 112.344 66.0793 112.036 66.27C111.736 66.4607 111.497 66.7173 111.321 67.04C111.145 67.3627 111.057 67.7293 111.057 68.14C111.057 68.5507 111.142 68.9173 111.31 69.24C111.479 69.5627 111.714 69.8193 112.014 70.01C112.315 70.2007 112.663 70.296 113.059 70.296C113.316 70.296 113.521 70.274 113.675 70.23C113.829 70.186 113.958 70.1347 114.06 70.076C114.192 70.0027 114.291 69.9293 114.357 69.856C114.431 69.7827 114.526 69.746 114.643 69.746C114.768 69.746 114.863 69.7863 114.929 69.867C115.003 69.9477 115.039 70.0467 115.039 70.164C115.039 70.296 114.948 70.4353 114.764 70.582C114.581 70.7287 114.332 70.8533 114.016 70.956C113.708 71.0587 113.356 71.11 112.96 71.11C112.403 71.11 111.915 70.9817 111.497 70.725C111.079 70.461 110.753 70.1053 110.518 69.658C110.291 69.2033 110.177 68.6973 110.177 68.14C110.177 67.5827 110.295 67.0803 110.529 66.633C110.771 66.1857 111.105 65.83 111.53 65.566C111.956 65.302 112.451 65.17 113.015 65.17ZM120.875 65.258C121 65.258 121.103 65.302 121.183 65.39C121.271 65.4707 121.315 65.5733 121.315 65.698V70.549C121.315 70.6737 121.271 70.78 121.183 70.868C121.103 70.956 121 71 120.875 71C120.743 71 120.637 70.956 120.556 70.868C120.476 70.78 120.435 70.6737 120.435 70.549V69.504L120.644 69.482C120.644 69.6433 120.589 69.8193 120.479 70.01C120.369 70.2007 120.219 70.3803 120.028 70.549C119.838 70.7103 119.61 70.846 119.346 70.956C119.09 71.0587 118.811 71.11 118.51 71.11C118.012 71.11 117.564 70.9817 117.168 70.725C116.772 70.461 116.457 70.1053 116.222 69.658C115.995 69.2107 115.881 68.701 115.881 68.129C115.881 67.5497 115.995 67.04 116.222 66.6C116.457 66.1527 116.772 65.8043 117.168 65.555C117.564 65.2983 118.004 65.17 118.488 65.17C118.804 65.17 119.097 65.2213 119.368 65.324C119.64 65.4267 119.874 65.566 120.072 65.742C120.278 65.918 120.435 66.1123 120.545 66.325C120.663 66.5377 120.721 66.7503 120.721 66.963L120.435 66.897V65.698C120.435 65.5733 120.476 65.4707 120.556 65.39C120.637 65.302 120.743 65.258 120.875 65.258ZM118.609 70.296C118.976 70.296 119.299 70.2007 119.577 70.01C119.863 69.8193 120.083 69.5627 120.237 69.24C120.399 68.91 120.479 68.5397 120.479 68.129C120.479 67.7257 120.399 67.3627 120.237 67.04C120.083 66.71 119.863 66.4533 119.577 66.27C119.299 66.0793 118.976 65.984 118.609 65.984C118.25 65.984 117.927 66.0757 117.641 66.259C117.363 66.4423 117.143 66.6953 116.981 67.018C116.82 67.3407 116.739 67.711 116.739 68.129C116.739 68.5397 116.816 68.91 116.97 69.24C117.132 69.5627 117.352 69.8193 117.63 70.01C117.916 70.2007 118.243 70.296 118.609 70.296ZM122.627 70.098C122.561 70.0027 122.532 69.9037 122.539 69.801C122.547 69.691 122.609 69.5957 122.726 69.515C122.8 69.4637 122.884 69.4417 122.979 69.449C123.082 69.4563 123.174 69.504 123.254 69.592C123.46 69.834 123.694 70.0283 123.958 70.175C124.222 70.3143 124.545 70.384 124.926 70.384C125.102 70.3767 125.278 70.3473 125.454 70.296C125.63 70.2447 125.777 70.1567 125.894 70.032C126.019 69.9 126.081 69.7277 126.081 69.515C126.081 69.3097 126.019 69.1483 125.894 69.031C125.77 68.9063 125.608 68.8073 125.41 68.734C125.212 68.6533 124.996 68.5837 124.761 68.525C124.519 68.459 124.281 68.3857 124.046 68.305C123.812 68.217 123.599 68.1107 123.408 67.986C123.225 67.854 123.075 67.6927 122.957 67.502C122.847 67.304 122.792 67.0657 122.792 66.787C122.792 66.457 122.88 66.171 123.056 65.929C123.24 65.687 123.482 65.5 123.782 65.368C124.09 65.236 124.424 65.17 124.783 65.17C124.989 65.17 125.201 65.1957 125.421 65.247C125.649 65.291 125.869 65.3717 126.081 65.489C126.294 65.599 126.481 65.753 126.642 65.951C126.708 66.0243 126.745 66.116 126.752 66.226C126.76 66.336 126.712 66.435 126.609 66.523C126.529 66.5817 126.437 66.6073 126.334 66.6C126.239 66.5927 126.158 66.556 126.092 66.49C125.938 66.3067 125.744 66.1673 125.509 66.072C125.282 65.9693 125.029 65.918 124.75 65.918C124.574 65.918 124.402 65.9437 124.233 65.995C124.065 66.0463 123.922 66.1343 123.804 66.259C123.694 66.3763 123.639 66.5413 123.639 66.754C123.647 66.952 123.713 67.1133 123.837 67.238C123.962 67.3627 124.131 67.4653 124.343 67.546C124.556 67.6193 124.791 67.6927 125.047 67.766C125.282 67.8247 125.506 67.8943 125.718 67.975C125.938 68.0483 126.136 68.1473 126.312 68.272C126.488 68.3967 126.628 68.558 126.73 68.756C126.833 68.9467 126.884 69.1887 126.884 69.482C126.884 69.8193 126.789 70.1127 126.598 70.362C126.408 70.604 126.155 70.791 125.839 70.923C125.531 71.0477 125.198 71.11 124.838 71.11C124.435 71.11 124.035 71.033 123.639 70.879C123.251 70.725 122.913 70.4647 122.627 70.098ZM38.7783 76.86C38.903 76.86 39.0057 76.904 39.0863 76.992C39.1743 77.0727 39.2183 77.1753 39.2183 77.3V84.549C39.2183 84.6737 39.1743 84.78 39.0863 84.868C39.0057 84.956 38.903 85 38.7783 85C38.6463 85 38.54 84.956 38.4593 84.868C38.3787 84.78 38.3383 84.6737 38.3383 84.549V83.504L38.5473 83.427C38.5473 83.603 38.4923 83.79 38.3823 83.988C38.2723 84.1787 38.122 84.3583 37.9313 84.527C37.7407 84.6957 37.5133 84.835 37.2493 84.945C36.9927 85.055 36.714 85.11 36.4133 85.11C35.922 85.11 35.4747 84.9817 35.0713 84.725C34.6753 84.4683 34.36 84.1163 34.1253 83.669C33.898 83.2217 33.7843 82.712 33.7843 82.14C33.7843 81.5607 33.898 81.0473 34.1253 80.6C34.36 80.1527 34.6753 79.8043 35.0713 79.555C35.4673 79.2983 35.9073 79.17 36.3913 79.17C36.6993 79.17 36.989 79.2213 37.2603 79.324C37.5317 79.4267 37.7663 79.566 37.9643 79.742C38.1697 79.918 38.331 80.1123 38.4483 80.325C38.5657 80.5377 38.6243 80.7503 38.6243 80.963L38.3383 80.897V77.3C38.3383 77.1753 38.3787 77.0727 38.4593 76.992C38.54 76.904 38.6463 76.86 38.7783 76.86ZM36.5123 84.296C36.879 84.296 37.2017 84.2043 37.4803 84.021C37.7663 83.8303 37.9863 83.5737 38.1403 83.251C38.3017 82.921 38.3823 82.5507 38.3823 82.14C38.3823 81.722 38.3017 81.3517 38.1403 81.029C37.9863 80.7063 37.7663 80.4533 37.4803 80.27C37.2017 80.0793 36.879 79.984 36.5123 79.984C36.153 79.984 35.8303 80.0793 35.5443 80.27C35.2657 80.4533 35.0457 80.7063 34.8843 81.029C34.723 81.3517 34.6423 81.722 34.6423 82.14C34.6423 82.5433 34.723 82.91 34.8843 83.24C35.0457 83.5627 35.2657 83.8193 35.5443 84.01C35.8303 84.2007 36.153 84.296 36.5123 84.296ZM43.4782 85.11C42.8915 85.11 42.3782 84.9853 41.9382 84.736C41.4982 84.4867 41.1535 84.1457 40.9042 83.713C40.6622 83.273 40.5412 82.767 40.5412 82.195C40.5412 81.557 40.6658 81.0143 40.9152 80.567C41.1718 80.1123 41.5018 79.7677 41.9052 79.533C42.3158 79.291 42.7485 79.17 43.2032 79.17C43.5405 79.17 43.8668 79.2323 44.1822 79.357C44.4975 79.4817 44.7762 79.665 45.0182 79.907C45.2602 80.1417 45.4545 80.4277 45.6012 80.765C45.7478 81.095 45.8248 81.4653 45.8322 81.876C45.8322 81.9933 45.7882 82.0923 45.7002 82.173C45.6122 82.2537 45.5095 82.294 45.3922 82.294H41.0472L40.8492 81.535H45.0842L44.9082 81.689V81.447C44.8788 81.1463 44.7762 80.8897 44.6002 80.677C44.4315 80.457 44.2225 80.2883 43.9732 80.171C43.7312 80.0537 43.4745 79.995 43.2032 79.995C42.9832 79.995 42.7632 80.0353 42.5432 80.116C42.3305 80.1893 42.1362 80.314 41.9602 80.49C41.7915 80.6587 41.6522 80.8787 41.5422 81.15C41.4395 81.4213 41.3882 81.7477 41.3882 82.129C41.3882 82.5543 41.4725 82.9283 41.6412 83.251C41.8172 83.5737 42.0592 83.8303 42.3672 84.021C42.6752 84.2043 43.0345 84.296 43.4452 84.296C43.7018 84.296 43.9255 84.263 44.1162 84.197C44.3068 84.131 44.4718 84.0503 44.6112 83.955C44.7505 83.8523 44.8678 83.7497 44.9632 83.647C45.0585 83.581 45.1502 83.548 45.2382 83.548C45.3482 83.548 45.4362 83.5847 45.5022 83.658C45.5755 83.7313 45.6122 83.8193 45.6122 83.922C45.6122 84.0467 45.5535 84.1567 45.4362 84.252C45.2308 84.4793 44.9522 84.681 44.6002 84.857C44.2482 85.0257 43.8742 85.11 43.4782 85.11ZM52.5821 85.11C52.0395 85.11 51.5628 85.0293 51.1521 84.868C50.7415 84.7067 50.3455 84.45 49.9641 84.098C49.9128 84.0467 49.8688 83.9917 49.8321 83.933C49.8028 83.867 49.7881 83.7973 49.7881 83.724C49.7881 83.6067 49.8285 83.504 49.9091 83.416C49.9971 83.3207 50.1035 83.273 50.2281 83.273C50.3308 83.273 50.4225 83.3133 50.5031 83.394C50.7891 83.6727 51.0971 83.8853 51.4271 84.032C51.7645 84.1787 52.1421 84.252 52.5601 84.252C52.8828 84.252 53.1725 84.2007 53.4291 84.098C53.6931 83.9953 53.9021 83.8523 54.0561 83.669C54.2101 83.4857 54.2871 83.273 54.2871 83.031C54.2798 82.7377 54.1918 82.4957 54.0231 82.305C53.8618 82.1143 53.6345 81.9567 53.3411 81.832C53.0551 81.7 52.7215 81.59 52.3401 81.502C52.0028 81.4213 51.6911 81.3223 51.4051 81.205C51.1265 81.0877 50.8845 80.9447 50.6791 80.776C50.4738 80.6 50.3125 80.391 50.1951 80.149C50.0851 79.8997 50.0301 79.61 50.0301 79.28C50.0301 78.862 50.1401 78.4953 50.3601 78.18C50.5801 77.8647 50.8845 77.6227 51.2731 77.454C51.6618 77.278 52.1091 77.19 52.6151 77.19C53.0625 77.19 53.4841 77.2633 53.8801 77.41C54.2835 77.5567 54.6061 77.7583 54.8481 78.015C54.9948 78.1543 55.0681 78.29 55.0681 78.422C55.0681 78.532 55.0205 78.6347 54.9251 78.73C54.8371 78.818 54.7345 78.862 54.6171 78.862C54.5365 78.862 54.4631 78.8327 54.3971 78.774C54.2725 78.6347 54.1148 78.51 53.9241 78.4C53.7335 78.29 53.5245 78.202 53.2971 78.136C53.0698 78.07 52.8425 78.037 52.6151 78.037C52.2778 78.037 51.9808 78.0883 51.7241 78.191C51.4675 78.2863 51.2658 78.4257 51.1191 78.609C50.9798 78.785 50.9101 78.9977 50.9101 79.247C50.9101 79.5257 50.9908 79.7567 51.1521 79.94C51.3135 80.116 51.5298 80.2627 51.8011 80.38C52.0725 80.49 52.3731 80.589 52.7031 80.677C53.0625 80.765 53.3925 80.8677 53.6931 80.985C54.0011 81.095 54.2651 81.2343 54.4851 81.403C54.7051 81.5717 54.8738 81.788 54.9911 82.052C55.1158 82.3087 55.1781 82.6277 55.1781 83.009C55.1781 83.4123 55.0645 83.7717 54.8371 84.087C54.6098 84.4023 54.2981 84.6517 53.9021 84.835C53.5135 85.011 53.0735 85.1027 52.5821 85.11ZM61.9015 82.14C61.9015 82.712 61.7732 83.2217 61.5165 83.669C61.2672 84.1163 60.9262 84.4683 60.4935 84.725C60.0682 84.9817 59.5879 85.11 59.0525 85.11C58.5172 85.11 58.0332 84.9817 57.6005 84.725C57.1679 84.4683 56.8232 84.1163 56.5665 83.669C56.3172 83.2217 56.1925 82.712 56.1925 82.14C56.1925 81.568 56.3172 81.0583 56.5665 80.611C56.8232 80.1637 57.1679 79.8117 57.6005 79.555C58.0332 79.2983 58.5172 79.17 59.0525 79.17C59.5879 79.17 60.0682 79.2983 60.4935 79.555C60.9262 79.8117 61.2672 80.1637 61.5165 80.611C61.7732 81.0583 61.9015 81.568 61.9015 82.14ZM61.0215 82.14C61.0215 81.7147 60.9335 81.3407 60.7575 81.018C60.5889 80.6953 60.3542 80.4423 60.0535 80.259C59.7602 80.0757 59.4265 79.984 59.0525 79.984C58.6785 79.984 58.3412 80.0757 58.0405 80.259C57.7472 80.4423 57.5125 80.6953 57.3365 81.018C57.1605 81.3407 57.0725 81.7147 57.0725 82.14C57.0725 82.558 57.1605 82.9283 57.3365 83.251C57.5125 83.5737 57.7472 83.8303 58.0405 84.021C58.3412 84.2043 58.6785 84.296 59.0525 84.296C59.4265 84.296 59.7602 84.2043 60.0535 84.021C60.3542 83.8303 60.5889 83.5737 60.7575 83.251C60.9335 82.9283 61.0215 82.558 61.0215 82.14ZM65.6011 76.882C65.7258 76.882 65.8541 76.8967 65.9861 76.926C66.1255 76.9553 66.2428 77.0067 66.3381 77.08C66.4408 77.1533 66.4921 77.2523 66.4921 77.377C66.4921 77.4943 66.4555 77.5933 66.3821 77.674C66.3088 77.7473 66.2208 77.784 66.1181 77.784C66.0521 77.784 65.9605 77.7657 65.8431 77.729C65.7258 77.685 65.6048 77.663 65.4801 77.663C65.3115 77.663 65.1721 77.6997 65.0621 77.773C64.9595 77.8463 64.8825 77.9453 64.8311 78.07C64.7871 78.1873 64.7651 78.3193 64.7651 78.466V84.549C64.7651 84.6737 64.7211 84.78 64.6331 84.868C64.5525 84.956 64.4498 85 64.3251 85C64.1931 85 64.0868 84.956 64.0061 84.868C63.9255 84.78 63.8851 84.6737 63.8851 84.549V78.477C63.8851 77.9857 64.0355 77.597 64.3361 77.311C64.6441 77.025 65.0658 76.882 65.6011 76.882ZM65.9091 79.401C66.0265 79.401 66.1255 79.4413 66.2061 79.522C66.2868 79.5953 66.3271 79.6907 66.3271 79.808C66.3271 79.9253 66.2868 80.0243 66.2061 80.105C66.1255 80.1783 66.0265 80.215 65.9091 80.215H63.1481C63.0308 80.215 62.9318 80.1747 62.8511 80.094C62.7705 80.0133 62.7301 79.918 62.7301 79.808C62.7301 79.6833 62.7705 79.5843 62.8511 79.511C62.9318 79.4377 63.0308 79.401 63.1481 79.401H65.9091ZM67.2805 79.346H69.8655C69.9829 79.346 70.0782 79.3863 70.1515 79.467C70.2322 79.5477 70.2725 79.643 70.2725 79.753C70.2725 79.8703 70.2322 79.9693 70.1515 80.05C70.0782 80.1233 69.9829 80.16 69.8655 80.16H67.2805C67.1705 80.16 67.0752 80.1197 66.9945 80.039C66.9139 79.9583 66.8735 79.8593 66.8735 79.742C66.8735 79.632 66.9139 79.5403 66.9945 79.467C67.0752 79.3863 67.1705 79.346 67.2805 79.346ZM68.4355 77.85C68.5602 77.85 68.6629 77.894 68.7435 77.982C68.8242 78.0627 68.8645 78.1653 68.8645 78.29V83.603C68.8645 83.779 68.8902 83.911 68.9415 83.999C68.9929 84.087 69.0589 84.1493 69.1395 84.186C69.2275 84.2153 69.3119 84.23 69.3925 84.23C69.4659 84.23 69.5282 84.219 69.5795 84.197C69.6382 84.1677 69.7042 84.153 69.7775 84.153C69.8509 84.153 69.9169 84.1897 69.9755 84.263C70.0415 84.329 70.0745 84.417 70.0745 84.527C70.0745 84.659 69.9975 84.7727 69.8435 84.868C69.6895 84.956 69.5172 85 69.3265 85C69.2239 85 69.0955 84.9927 68.9415 84.978C68.7949 84.9633 68.6482 84.9157 68.5015 84.835C68.3549 84.7543 68.2302 84.6223 68.1275 84.439C68.0322 84.2483 67.9845 83.9843 67.9845 83.647V78.29C67.9845 78.1653 68.0285 78.0627 68.1165 77.982C68.2045 77.894 68.3109 77.85 68.4355 77.85ZM78.647 79.214C78.7644 79.214 78.8634 79.2543 78.944 79.335C79.032 79.4157 79.076 79.522 79.076 79.654C79.076 79.6833 79.0724 79.7163 79.065 79.753C79.065 79.7823 79.0577 79.8117 79.043 79.841L77.349 84.714C77.3124 84.8093 77.25 84.8827 77.162 84.934C77.0814 84.9853 76.9934 85.0073 76.898 85C76.7294 84.9927 76.601 84.8973 76.513 84.714L75.127 81.238L75.347 81.271L74.093 84.714C74.0124 84.8973 73.884 84.9927 73.708 85C73.6127 85.0073 73.521 84.9853 73.433 84.934C73.345 84.8827 73.2864 84.8093 73.257 84.714L71.53 79.841C71.508 79.775 71.497 79.7127 71.497 79.654C71.497 79.5367 71.5374 79.434 71.618 79.346C71.6987 79.258 71.8087 79.214 71.948 79.214C72.036 79.214 72.1167 79.236 72.19 79.28C72.2634 79.324 72.3147 79.3937 72.344 79.489L73.829 83.823L73.598 83.812L74.885 80.512C74.9584 80.3287 75.094 80.237 75.292 80.237C75.3947 80.237 75.4754 80.2627 75.534 80.314C75.6 80.358 75.6477 80.424 75.677 80.512L77.019 83.812L76.744 83.834L78.229 79.489C78.295 79.3057 78.4344 79.214 78.647 79.214ZM84.9912 79.258C85.1159 79.258 85.2185 79.302 85.2992 79.39C85.3872 79.4707 85.4312 79.5733 85.4312 79.698V84.549C85.4312 84.6737 85.3872 84.78 85.2992 84.868C85.2185 84.956 85.1159 85 84.9912 85C84.8592 85 84.7529 84.956 84.6722 84.868C84.5915 84.78 84.5512 84.6737 84.5512 84.549V83.504L84.7602 83.482C84.7602 83.6433 84.7052 83.8193 84.5952 84.01C84.4852 84.2007 84.3349 84.3803 84.1442 84.549C83.9535 84.7103 83.7262 84.846 83.4622 84.956C83.2055 85.0587 82.9269 85.11 82.6262 85.11C82.1275 85.11 81.6802 84.9817 81.2842 84.725C80.8882 84.461 80.5729 84.1053 80.3382 83.658C80.1109 83.2107 79.9972 82.701 79.9972 82.129C79.9972 81.5497 80.1109 81.04 80.3382 80.6C80.5729 80.1527 80.8882 79.8043 81.2842 79.555C81.6802 79.2983 82.1202 79.17 82.6042 79.17C82.9195 79.17 83.2129 79.2213 83.4842 79.324C83.7555 79.4267 83.9902 79.566 84.1882 79.742C84.3935 79.918 84.5512 80.1123 84.6612 80.325C84.7785 80.5377 84.8372 80.7503 84.8372 80.963L84.5512 80.897V79.698C84.5512 79.5733 84.5915 79.4707 84.6722 79.39C84.7529 79.302 84.8592 79.258 84.9912 79.258ZM82.7252 84.296C83.0919 84.296 83.4145 84.2007 83.6932 84.01C83.9792 83.8193 84.1992 83.5627 84.3532 83.24C84.5145 82.91 84.5952 82.5397 84.5952 82.129C84.5952 81.7257 84.5145 81.3627 84.3532 81.04C84.1992 80.71 83.9792 80.4533 83.6932 80.27C83.4145 80.0793 83.0919 79.984 82.7252 79.984C82.3659 79.984 82.0432 80.0757 81.7572 80.259C81.4785 80.4423 81.2585 80.6953 81.0972 81.018C80.9359 81.3407 80.8552 81.711 80.8552 82.129C80.8552 82.5397 80.9322 82.91 81.0862 83.24C81.2475 83.5627 81.4675 83.8193 81.7462 84.01C82.0322 84.2007 82.3585 84.296 82.7252 84.296ZM87.502 85C87.3774 85 87.271 84.956 87.183 84.868C87.1024 84.78 87.062 84.6737 87.062 84.549V79.753C87.062 79.6283 87.1024 79.5257 87.183 79.445C87.271 79.357 87.3774 79.313 87.502 79.313C87.634 79.313 87.7404 79.357 87.821 79.445C87.9017 79.5257 87.942 79.6283 87.942 79.753V81.205L87.81 80.974C87.854 80.7467 87.931 80.5267 88.041 80.314C88.1584 80.094 88.305 79.8997 88.481 79.731C88.657 79.555 88.8587 79.4193 89.086 79.324C89.3134 79.2213 89.5627 79.17 89.834 79.17C89.9954 79.17 90.142 79.2103 90.274 79.291C90.4134 79.3643 90.483 79.4707 90.483 79.61C90.483 79.764 90.4427 79.8777 90.362 79.951C90.2814 80.0243 90.1897 80.061 90.087 80.061C89.9917 80.061 89.9 80.0427 89.812 80.006C89.724 79.962 89.614 79.94 89.482 79.94C89.2987 79.94 89.1154 79.9913 88.932 80.094C88.756 80.1893 88.591 80.3287 88.437 80.512C88.2904 80.6953 88.1694 80.9043 88.074 81.139C87.986 81.3663 87.942 81.612 87.942 81.876V84.549C87.942 84.6737 87.898 84.78 87.81 84.868C87.7294 84.956 87.6267 85 87.502 85ZM93.859 85.11C93.2723 85.11 92.759 84.9853 92.319 84.736C91.879 84.4867 91.5343 84.1457 91.285 83.713C91.043 83.273 90.922 82.767 90.922 82.195C90.922 81.557 91.0467 81.0143 91.296 80.567C91.5527 80.1123 91.8827 79.7677 92.286 79.533C92.6967 79.291 93.1293 79.17 93.584 79.17C93.9213 79.17 94.2477 79.2323 94.563 79.357C94.8783 79.4817 95.157 79.665 95.399 79.907C95.641 80.1417 95.8353 80.4277 95.982 80.765C96.1287 81.095 96.2057 81.4653 96.213 81.876C96.213 81.9933 96.169 82.0923 96.081 82.173C95.993 82.2537 95.8903 82.294 95.773 82.294H91.428L91.23 81.535H95.465L95.289 81.689V81.447C95.2597 81.1463 95.157 80.8897 94.981 80.677C94.8123 80.457 94.6033 80.2883 94.354 80.171C94.112 80.0537 93.8553 79.995 93.584 79.995C93.364 79.995 93.144 80.0353 92.924 80.116C92.7113 80.1893 92.517 80.314 92.341 80.49C92.1723 80.6587 92.033 80.8787 91.923 81.15C91.8203 81.4213 91.769 81.7477 91.769 82.129C91.769 82.5543 91.8533 82.9283 92.022 83.251C92.198 83.5737 92.44 83.8303 92.748 84.021C93.056 84.2043 93.4153 84.296 93.826 84.296C94.0827 84.296 94.3063 84.263 94.497 84.197C94.6877 84.131 94.8527 84.0503 94.992 83.955C95.1313 83.8523 95.2487 83.7497 95.344 83.647C95.4393 83.581 95.531 83.548 95.619 83.548C95.729 83.548 95.817 83.5847 95.883 83.658C95.9563 83.7313 95.993 83.8193 95.993 83.922C95.993 84.0467 95.9343 84.1567 95.817 84.252C95.6117 84.4793 95.333 84.681 94.981 84.857C94.629 85.0257 94.255 85.11 93.859 85.11Z" fill="black"/>
</g>
<defs>
<filter id="filter0_d_1_88" x="26.0101" y="18.28" width="87.9617" height="29" filterUnits="userSpaceOnUse" color-interpolation-filters="sRGB">
<feFlood flood-opacity="0" result="BackgroundImageFix"/>
<feColorMatrix in="SourceAlpha" type="matrix" values="0 0 0 0 0 0 0 0 0 0 0 0 0 0 0 0 0 0 127 0" result="hardAlpha"/>
<feOffset dx="4" dy="4"/>
<feGaussianBlur stdDeviation="2"/>
<feColorMatrix type="matrix" values="0 0 0 0 1 0 0 0 0 1 0 0 0 0 1 0 0 0 0.25 0"/>
<feBlend mode="normal" in2="BackgroundImageFix" result="effect1_dropShadow_1_88"/>
<feBlend mode="normal" in="SourceGraphic" in2="effect1_dropShadow_1_88" result="shape"/>
</filter>
<filter id="filter1_d_1_88" x="3.62573" y="62.86" width="131.259" height="30.25" filterUnits="userSpaceOnUse" color-interpolation-filters="sRGB">
<feFlood flood-opacity="0" result="BackgroundImageFix"/>
<feColorMatrix in="SourceAlpha" type="matrix" values="0 0 0 0 0 0 0 0 0 0 0 0 0 0 0 0 0 0 127 0" result="hardAlpha"/>
<feOffset dx="4" dy="4"/>
<feGaussianBlur stdDeviation="2"/>
<feColorMatrix type="matrix" values="0 0 0 0 0 0 0 0 0 0 0 0 0 0 0 0 0 0 0.25 0"/>
<feBlend mode="normal" in2="BackgroundImageFix" result="effect1_dropShadow_1_88"/>
<feBlend mode="normal" in="SourceGraphic" in2="effect1_dropShadow_1_88" result="shape"/>
</filter>
</defs>
</svg>
